<svg id="Слой_1" data-name="Слой 1" xmlns="http://www.w3.org/2000/svg" viewBox="0 0 666.67 666.67"><defs><style>.cls-1{fill:#fff;}</style></defs><path class="cls-1" d="M666.67,333.33C666.67,149.67,517,0,333.33,0S0,149.67,0,333.33C0,430,41.67,517,107.67,578c0,.33,0,.33-.34.67,3.34,3.33,7.34,6,10.67,9a70.44,70.44,0,0,0,5.67,4.66c6,5,12.66,9.67,19,14.34,2.33,1.66,4.33,3,6.66,4.66a196.7,196.7,0,0,0,20,12c2.34,1.34,5,3,7.34,4.34a203.17,203.17,0,0,0,21,10,84.84,84.84,0,0,0,8,3.66q11,4.5,22,8a75,75,0,0,0,8,2.67c8,2.33,16,4.33,24,6.33A46.33,46.33,0,0,0,267,660a263.85,263.85,0,0,0,28.33,4.33,16.82,16.82,0,0,1,4,.67c11.34,1,22.67,1.67,34,1.67S356,666,367,665a16.41,16.41,0,0,0,4-.67A263.47,263.47,0,0,0,399.33,660c2.34-.33,4.67-1.33,7.34-1.67,8-2,16.33-3.66,24-6.33a75,75,0,0,1,8-2.67c7.33-2.66,15-5,22-8a87.22,87.22,0,0,0,8-3.66q10.5-4.5,21-10c2.66-1.34,5-3,7.33-4.34,6.67-4,13.33-7.66,20-12,2.33-1.33,4.33-3,6.67-4.66,6.66-4.67,13-9.34,19-14.34a70.34,70.34,0,0,1,5.66-4.66c3.67-3,7.34-6,10.67-9,0-.34,0-.34-.33-.67C625,517,666.67,430,666.67,333.33ZM498,499c-90.33-60.67-238.33-60.67-329.33,0A161.06,161.06,0,0,0,132,532.33C81.33,481,50,410.67,50,333.33,50,177,177,50,333.33,50S616.67,177,616.67,333.33c0,77.34-31.34,147.67-82,199A154.4,154.4,0,0,0,498,499Z"/><path class="cls-1" d="M333.33,164.32a125,125,0,0,0-125,125c0,67.67,53,122.67,123.34,124.67h6a124.87,124.87,0,0,0-4.34-249.67Z"/></svg>